<?xml version="1.0" encoding="utf-8"?><svg viewBox="0 0 22 22" xmlns="http://www.w3.org/2000/svg" xmlns:xlink="http://www.w3.org/1999/xlink"><style>:root>svg{display:none}:root>svg:target{display:block}</style><svg fill="none" viewBox="0 0 22 22" id="facebook" xmlns="http://www.w3.org/2000/svg"><path d="M11 2.063A8.938 8.938 0 1 0 19.938 11 8.947 8.947 0 0 0 11 2.062zm.688 16.468v-5.468h2.062a.687.687 0 1 0 0-1.376h-2.063V9.626a1.375 1.375 0 0 1 1.376-1.375h1.374a.687.687 0 0 0 0-1.375h-1.374a2.75 2.75 0 0 0-2.75 2.75v2.063H8.25a.687.687 0 1 0 0 1.374h2.063v5.469a7.562 7.562 0 1 1 1.374 0z" fill="#000"/></svg><svg fill="none" viewBox="0 0 22 22" id="instagram" xmlns="http://www.w3.org/2000/svg"><path d="M11 6.875a4.125 4.125 0 1 0 0 8.25 4.125 4.125 0 0 0 0-8.25zm0 6.875a2.75 2.75 0 1 1 0-5.5 2.75 2.75 0 0 1 0 5.5zm4.125-11.688h-8.25a4.818 4.818 0 0 0-4.813 4.813v8.25a4.818 4.818 0 0 0 4.813 4.813h8.25a4.817 4.817 0 0 0 4.813-4.813v-8.25a4.818 4.818 0 0 0-4.813-4.813zm3.438 13.063a3.438 3.438 0 0 1-3.438 3.438h-8.25a3.438 3.438 0 0 1-3.438-3.438v-8.25a3.437 3.437 0 0 1 3.438-3.438h8.25a3.438 3.438 0 0 1 3.438 3.438v8.25zM16.5 6.531a1.031 1.031 0 1 1-2.063 0 1.031 1.031 0 0 1 2.063 0z" fill="#000"/></svg><svg fill="none" viewBox="0 0 22 22" id="linkedin" xmlns="http://www.w3.org/2000/svg"><path d="M9.197 14.025H7.73V9.259h1.467v4.766zm-.733-5.377c-.53 0-.794-.245-.794-.733a.678.678 0 0 1 .229-.52.796.796 0 0 1 .565-.214c.528 0 .793.246.793.734 0 .489-.264.733-.793.733zm6.172 5.377H13.14v-2.658c0-.692-.246-1.039-.735-1.039-.387 0-.64.194-.764.58-.04.062-.06.185-.06.367v2.75h-1.498v-3.239c0-.733-.01-1.242-.03-1.527h1.283l.092.641c.336-.51.825-.764 1.497-.764.51 0 .922.178 1.237.535.318.356.475.87.475 1.543v2.811zM11 19.25c-4.55 0-8.25-3.7-8.25-8.25S6.45 2.75 11 2.75s8.25 3.7 8.25 8.25-3.7 8.25-8.25 8.25zm0-14.667A6.425 6.425 0 0 0 4.583 11 6.425 6.425 0 0 0 11 17.417 6.425 6.425 0 0 0 17.417 11 6.425 6.425 0 0 0 11 4.583z" fill="#000"/></svg><svg fill="none" viewBox="0 0 16 16" id="phone-ico" xmlns="http://www.w3.org/2000/svg"><path d="m15.5 10.861-4.392-.508-2.1 2.099a12.534 12.534 0 0 1-5.491-5.488l2.108-2.108L5.117.484H.525C.042 8.962 7.017 15.934 15.5 15.45v-4.589z" fill="#BEA495"/></svg><svg fill="none" viewBox="0 0 22 22" id="youtube" xmlns="http://www.w3.org/2000/svg"><path d="M18.071 3.143H3.928A3.143 3.143 0 0 0 .786 6.286v9.428a3.143 3.143 0 0 0 3.143 3.143H18.07a3.143 3.143 0 0 0 3.143-3.143V6.286a3.143 3.143 0 0 0-3.143-3.143z" stroke="#000" stroke-linecap="round" stroke-linejoin="round"/><path d="M8.344 14.646v-6.6a.613.613 0 0 1 .943-.534l5.657 3.3a.628.628 0 0 1 0 1.084l-5.657 3.3a.63.63 0 0 1-.943-.55z" stroke="#000" stroke-linecap="round" stroke-linejoin="round"/></svg></svg>